<svg width="82" height="56" viewBox="0 0 82 56" fill="none" xmlns="http://www.w3.org/2000/svg">
<path d="M79.9827 0.814863C79.8805 0.272126 79.3576 -0.0849612 78.8149 0.0172873L69.9705 1.68352C69.4277 1.78577 69.0706 2.30863 69.1729 2.85137C69.2751 3.39411 69.798 3.7512 70.3407 3.64895L78.2024 2.16785L79.6835 10.0296C79.7858 10.5723 80.3086 10.9294 80.8514 10.8271C81.3941 10.7249 81.7512 10.202 81.6489 9.65928L79.9827 0.814863ZM61.5121 26.6067L60.6863 26.0427L61.5121 26.6067ZM35.6063 22.7707L35.1295 23.6497L35.6063 22.7707ZM1.80315 55.5958L23.6099 26.1988L22.0036 25.0073L0.196851 54.4042L1.80315 55.5958ZM35.1295 23.6497L48.0093 30.6361L48.9629 28.8781L36.0831 21.8917L35.1295 23.6497ZM62.3379 27.1707L79.8258 1.56397L78.1742 0.436029L60.6863 26.0427L62.3379 27.1707ZM48.0093 30.6361C52.9676 33.3256 59.1567 31.8287 62.3379 27.1707L60.6863 26.0427C58.0835 29.8539 53.0197 31.0786 48.9629 28.8781L48.0093 30.6361ZM23.6099 26.1988C26.2797 22.5998 31.1905 21.5131 35.1295 23.6497L36.0831 21.8917C31.2687 19.2803 25.2667 20.6085 22.0036 25.0073L23.6099 26.1988Z" fill="#FFC303"/>
</svg>
