<svg width="401" height="395" viewBox="0 0 401 395" fill="none" xmlns="http://www.w3.org/2000/svg">
<path opacity="0.6" d="M46.4111 -34.6099C23.4181 3.13719 8.3673 45.7119 2.52143 89.5377C-1.09502 116.651 0.173807 147.747 20.1054 166.452C35.0426 180.474 57.0615 183.962 77.5213 183.208C97.9811 182.454 118.326 178.148 138.763 179.351C159.2 180.556 180.842 188.635 191.211 206.314C201.024 223.042 198.58 243.882 197.377 263.247C196.177 282.612 197.621 304.596 212.216 317.356C232.885 335.425 266.563 324.26 290.928 336.894C314.037 348.876 323.422 379.446 347.233 389.958C367.137 398.747 390.046 390.58 410.175 382.329C431.16 373.725 452.101 365.017 472.998 356.202M70.4257 -59.587C47.9213 -22.7196 33.1876 18.8604 27.4645 61.6645C23.9252 88.1459 25.1669 118.517 44.6771 136.787C59.2971 150.48 80.8503 153.888 100.877 153.15C120.903 152.415 140.817 148.208 160.823 149.385C180.829 150.561 202.013 158.452 212.162 175.716C221.767 192.057 219.375 212.41 218.198 231.323C217.022 250.237 218.434 271.706 232.722 284.169C252.954 301.818 285.919 290.913 309.768 303.252C332.388 314.955 341.574 344.811 364.882 355.08C384.363 363.661 406.788 355.686 426.493 347.627C447.032 339.224 467.531 330.719 487.984 322.111M93.1913 -84.5641C71.1712 -48.4665 56.7576 -7.75564 51.1603 34.1546C47.6952 60.0827 48.9112 89.819 67.9985 107.707C82.3042 121.113 103.392 124.449 122.984 123.728C142.578 123.007 162.061 118.89 181.634 120.041C201.208 121.192 221.932 128.918 231.863 145.822C241.261 161.821 238.919 181.749 237.769 200.268C236.617 218.785 238 239.806 251.978 252.009C271.773 269.289 304.024 258.611 327.359 270.694C349.49 282.153 358.477 311.384 381.28 321.438C400.34 329.841 422.279 322.031 441.559 314.141C461.654 305.913 481.709 297.586 501.722 289.157M117.087 -109.541C95.6133 -74.3248 81.5596 -34.6057 76.0992 6.28135C72.7208 31.5773 73.9063 60.5883 92.5194 78.0392C106.47 91.1192 127.032 94.3746 146.137 93.6708C165.244 92.967 184.244 88.9495 203.33 90.074C222.416 91.1971 242.626 98.7336 252.309 115.226C261.474 130.835 259.191 150.276 258.069 168.343C256.946 186.411 258.295 206.918 271.923 218.822C291.227 235.68 322.678 225.264 345.431 237.05C367.013 248.23 375.773 276.748 398.012 286.558C416.598 294.756 437.994 287.138 456.791 279.439C476.387 271.413 495.943 263.288 515.459 255.064M139.853 -135.767C118.866 -101.32 105.13 -62.472 99.7934 -22.4773C96.4922 2.26397 97.6506 30.6404 115.842 47.7107C129.476 60.5037 149.572 63.6873 168.244 62.9986C186.919 62.3115 205.488 58.3823 224.141 59.4805C242.794 60.5802 262.548 67.9526 272.011 84.0837C280.967 99.3506 278.737 118.367 277.639 136.039C276.542 153.711 277.861 173.769 291.181 185.415C310.047 201.903 340.784 191.714 363.023 203.243C384.114 214.178 392.678 242.073 414.412 251.667C432.577 259.686 453.487 252.235 471.86 244.705C491.012 236.854 510.125 228.907 529.197 220.863M163.747 -160.744C143.308 -127.179 129.93 -89.3205 124.732 -50.3505C121.518 -26.24 122.646 1.40975 140.362 18.0433C153.641 30.5099 173.212 33.6116 191.398 32.9418C209.586 32.272 227.669 28.4421 245.836 29.5135C264.003 30.5848 283.241 37.7681 292.457 53.4877C301.18 68.3636 299.007 86.8957 297.939 104.115C296.871 121.335 298.153 140.881 311.127 152.228C329.5 168.295 359.435 158.367 381.094 169.602C401.635 180.257 409.976 207.438 431.144 216.788C448.835 224.602 469.198 217.341 487.092 210.003C505.744 202.352 524.358 194.609 542.934 186.771M187.761 -185.721C167.81 -153.036 154.749 -116.172 149.675 -78.2237C146.538 -54.7454 147.639 -27.8209 164.935 -11.6225C177.896 0.516161 197.002 3.53735 214.755 2.88493C232.508 2.23101 250.162 -1.49649 267.896 -0.453511C285.63 0.58947 304.41 7.58509 313.407 22.8916C321.921 37.3782 319.801 55.4216 318.759 72.1901C317.715 88.9586 318.967 107.993 331.633 119.042C349.568 134.688 378.79 125.02 399.933 135.96C419.986 146.336 428.128 172.804 448.79 181.908C466.061 189.517 485.939 182.447 503.407 175.302C521.615 167.853 539.786 160.311 557.92 152.679M210.526 -210.698C191.062 -178.784 178.319 -142.788 173.37 -105.734C170.309 -82.8099 171.384 -56.5185 188.255 -40.7037C200.902 -28.8505 219.541 -25.8996 236.861 -26.5384C254.181 -27.1741 271.404 -30.8163 288.707 -29.7967C306.009 -28.7786 324.329 -21.9486 333.108 -7.00201C341.415 7.14234 339.346 24.7609 338.328 41.1349C337.312 57.5075 338.534 76.0932 350.889 86.8818C368.388 102.16 396.897 92.7191 417.523 103.401C437.087 113.532 445.031 139.378 465.189 148.266C482.038 155.696 501.433 148.793 518.476 141.816C536.239 134.542 553.966 127.178 571.658 119.726" stroke="#FFC303"/>
</svg>
