<svg width="296" height="324" viewBox="0 0 296 324" fill="none" xmlns="http://www.w3.org/2000/svg">
<path opacity="0.6" d="M249.61 -105.421C272.603 -67.6743 287.654 -25.0996 293.5 18.7262C297.117 45.8398 295.848 76.9358 275.916 95.6408C260.979 109.662 238.96 113.15 218.5 112.397C198.04 111.643 177.696 107.337 157.259 108.54C136.821 109.745 115.179 117.823 104.81 135.502C94.9978 152.231 97.4412 173.071 98.6442 192.435C99.8442 211.801 98.4003 233.784 83.8058 246.544C63.1366 264.614 29.4588 253.448 5.09377 266.082C-18.0159 278.064 -27.4004 308.634 -51.2118 319.147C-71.115 327.936 -94.0242 319.768 -114.153 311.517C-135.138 302.914 -156.08 294.206 -176.977 285.391M225.596 -130.399C248.1 -93.5311 262.834 -51.9511 268.557 -9.14697C272.096 17.3344 270.855 47.7053 251.344 65.9751C236.724 79.6685 215.171 83.0761 195.144 82.3383C175.119 81.6035 155.204 77.3968 135.198 78.573C115.192 79.7493 94.0089 87.6406 83.8599 104.905C74.2545 121.245 76.6465 141.598 77.8238 160.512C78.9996 179.425 77.5871 200.895 63.2997 213.358C43.0675 231.007 10.1027 220.101 -13.7467 232.44C-36.3663 244.143 -45.5523 273.999 -68.8609 284.269C-88.3412 292.85 -110.766 284.875 -130.471 276.816C-151.01 268.413 -171.509 259.908 -191.963 251.3M202.83 -155.376C224.85 -119.278 239.264 -78.5672 244.861 -36.6569C248.326 -10.7288 247.11 19.0075 228.023 36.8951C213.717 50.3014 192.63 53.6373 173.037 52.9161C153.443 52.195 133.96 48.078 114.387 49.2295C94.814 50.3809 74.0894 58.1066 64.1589 75.0107C54.7607 91.0093 57.1028 110.937 58.2528 129.456C59.4043 147.974 58.0219 168.995 44.0431 181.197C24.2481 198.478 -8.00235 187.8 -31.3374 199.882C-53.4684 211.341 -62.4558 240.572 -85.2586 250.626C-104.319 259.03 -126.258 251.22 -145.537 243.329C-165.632 235.101 -185.688 226.775 -205.7 218.346M178.935 -180.353C200.408 -145.136 214.462 -105.417 219.922 -64.5302C223.301 -39.2342 222.115 -10.2232 203.502 7.22773C189.552 20.3077 168.99 23.5631 149.884 22.8593C130.777 22.1555 111.778 18.1379 92.6918 19.2625C73.6057 20.3856 53.3955 27.9221 43.7125 44.4147C34.5474 60.0238 36.8301 79.4648 37.9527 97.5312C39.0754 115.599 37.7267 136.106 24.0981 148.011C4.79494 164.869 -26.6564 154.453 -49.4098 166.239C-70.991 177.419 -79.752 205.937 -101.99 215.747C-120.577 223.945 -141.972 216.326 -160.769 208.628C-180.366 200.602 -199.922 192.477 -219.438 184.253M156.169 -206.579C177.155 -172.132 190.892 -133.283 196.228 -93.2888C199.529 -68.5475 198.371 -40.1711 180.179 -23.1008C166.546 -10.3079 146.45 -7.12425 127.777 -7.81288C109.103 -8.50001 90.5335 -12.4292 71.8803 -11.331C53.2271 -10.2313 33.474 -2.85892 24.011 13.2722C15.0545 28.5391 17.2843 47.5553 18.3827 65.2272C19.4796 82.8991 18.1609 102.958 4.84082 114.603C-14.0252 131.091 -44.7622 120.903 -67.0013 132.431C-88.0926 143.367 -96.6565 171.262 -118.391 180.856C-136.555 188.875 -157.465 181.423 -175.838 173.893C-194.99 166.042 -214.104 158.095 -233.175 150.052M132.275 -231.556C152.713 -197.99 166.091 -160.132 171.289 -121.162C174.504 -97.0515 173.376 -69.4018 155.66 -52.7682C142.38 -40.3016 122.81 -37.1999 104.624 -37.8697C86.4352 -38.5395 68.3527 -42.3694 50.185 -41.298C32.0188 -40.2267 12.7801 -33.0434 3.5646 -17.3238C-5.15878 -2.44785 -2.98541 16.0842 -1.91742 33.3036C-0.849435 50.5231 -2.1313 70.0695 -15.1057 81.4168C-33.4783 97.484 -63.4133 87.5557 -85.0722 98.7906C-105.614 109.446 -113.954 136.626 -135.122 145.976C-152.813 153.79 -173.177 146.529 -191.071 139.192C-209.723 131.541 -228.336 123.797 -246.912 115.959M108.26 -256.533C128.211 -223.847 141.273 -186.984 146.346 -149.035C149.483 -125.557 148.383 -98.6324 131.087 -82.434C118.126 -70.2953 99.0194 -67.2741 81.2667 -67.9266C63.5139 -68.5805 45.8599 -72.308 28.1251 -71.265C10.3918 -70.222 -8.38821 -63.2264 -17.3851 -47.9199C-25.8999 -33.4333 -23.7794 -15.3899 -22.7372 1.3786C-21.6934 18.1471 -22.9453 37.1812 -35.6111 48.2305C-53.5465 63.8767 -82.7686 54.2086 -103.912 65.1487C-123.965 75.5246 -132.106 101.993 -152.769 111.097C-170.039 118.706 -189.917 111.635 -207.385 104.49C-225.593 97.0411 -243.764 89.4993 -261.899 81.8678M85.4954 -281.51C104.959 -249.595 117.702 -213.6 122.651 -176.545C125.713 -153.621 124.638 -127.33 107.766 -111.515C95.1195 -99.662 76.4801 -96.7111 59.1602 -97.3499C41.8402 -97.9856 24.6177 -101.628 7.31422 -100.608C-9.98775 -99.5901 -28.3078 -92.76 -37.0862 -77.8135C-45.3938 -63.6691 -43.3248 -46.0506 -42.3068 -29.6765C-41.2902 -13.304 -42.5122 5.28168 -54.8679 16.0703C-72.3663 31.3482 -100.876 21.9077 -121.502 32.5898C-141.066 42.7201 -149.009 68.5661 -169.167 77.4549C-186.017 84.8847 -205.412 77.9812 -222.454 71.0043C-240.218 63.7304 -257.944 56.3666 -275.636 48.9143" stroke="#FFC303"/>
</svg>
